<?xml version="1.0" encoding="utf-8" ?><svg xmlns="http://www.w3.org/2000/svg" xmlns:xlink="http://www.w3.org/1999/xlink" width="1024" height="1024" viewBox="0 0 1024 1024"><path fill="white" d="M0 0L1024 0L1024 1024L0 1024L0 0Z"/><defs><linearGradient id="gradient_0" gradientUnits="userSpaceOnUse" x1="292.07251" y1="810.22168" x2="512.20569" y2="447.64365"><stop offset="0" stop-color="#395D7C"/><stop offset="1" stop-color="#45B8BC"/></linearGradient></defs><path fill="url(#gradient_0)" d="M193.087 755.453C202.819 742.171 217.109 725.809 227.722 712.691L305.375 617.113L363.502 545.792C372.94 534.317 382.281 522.63 392.197 511.579C399.608 503.32 414.649 504.79 424.89 504.815L454.091 504.886L560.096 504.843L592.393 504.792C597.759 504.793 605.131 505.047 610.247 504.669C593.164 524.172 574.358 547.965 557.77 568.191L469.128 676.341L438.223 714.309C426.76 728.375 414.433 745.068 399.978 755.553C382.154 768.48 359.314 774.206 337.502 775.058C312.75 776.024 286.735 775.548 261.777 775.544L176.305 775.522C180.272 771.486 189.743 758.063 193.087 755.453Z"/><path fill="#2B3E61" d="M193.087 755.453C195.083 754.63 195.493 753.946 196.957 752.338C198.661 753.778 198.042 753.702 199.827 753.729L200.403 753.339C209.221 747.504 220.024 759.068 226.61 763.884C229.668 766.121 232.349 772.768 234.029 773.714C242.819 774.933 253.515 772.699 261.777 775.544L176.305 775.522C180.272 771.486 189.743 758.063 193.087 755.453Z"/><path fill="#2B3E61" d="M189.243 224.748C225.34 225.721 261.836 224.325 297.997 224.935C334.931 225.557 376.404 221.745 409.038 242.469C423.605 251.719 433.335 264.816 444.218 277.861C452.639 287.842 460.976 297.894 469.228 308.015L513.31 361.073C522.274 372.565 532.309 383.916 541.695 395.137L587.912 450.871C595.791 460.4 604.741 470.376 612.025 480.236C601.821 479.338 579.403 480.147 568.504 480.154L458.511 480.085C445.248 479.986 431.674 480.422 418.427 480.204C410.727 480.077 404.139 474.326 398.697 469.212C388.69 459.81 379.49 448.517 370.496 438.011L330.629 391.185C283.782 336.063 236.652 279.185 189.243 224.748Z"/><path fill="#2B3E61" d="M621.886 505.975C625.077 505.991 628.055 506.681 630.276 509.2C637.542 517.441 644.546 525.947 651.566 534.402L695.803 588.419L801.4 717.525C816.752 736.199 833.216 757.38 848.909 775.488L744.25 775.537C697.38 775.582 643.479 780.079 609.282 740.914C577.807 704.867 549.081 665.39 517.012 629.92C528.791 615.228 614.346 510.34 621.886 505.975Z"/><path fill="#29B1B9" d="M513.31 361.073L570.396 291.909C583.682 276.015 602.304 250.739 619.124 240.045C645.659 223.175 690.066 224.802 720.574 224.85L794.078 224.885C806.96 224.883 822.871 225.28 835.526 224.62L688.359 398.322L649.27 444.575C642.968 451.976 621.018 479.786 612.025 480.236C604.741 470.376 595.791 460.4 587.912 450.871L541.695 395.137C532.309 383.916 522.274 372.565 513.31 361.073Z"/></svg>