<?xml version="1.0" encoding="utf-8" ?><svg xmlns="http://www.w3.org/2000/svg" xmlns:xlink="http://www.w3.org/1999/xlink" width="19380" height="6684" viewBox="0 0 19380 6684"><defs><linearGradient id="gradient_0" gradientUnits="userSpaceOnUse" x1="240.879" y1="870.87" x2="526.49402" y2="455.54199"><stop offset="0" stop-color="#E1E6ED"/><stop offset="1" stop-color="#243B5A"/></linearGradient></defs><path fill="url(#gradient_0)" transform="scale(5.13379 5.13362)" d="M509.46 653.159C529.445 651.968 558.627 652.924 579.358 652.916L713.117 652.832L755.727 652.958C762.388 652.995 774.11 653.438 780.155 652.659C765.257 670.095 749.863 691.226 735.207 709.491C686.697 770.43 638.687 831.766 591.184 893.494L548.668 948.631C520.954 984.777 503.741 1012.15 458.122 1027.15C422.467 1036.72 380.855 1034.35 343.625 1034.31L244.518 1034.32C232.232 1034.32 206.579 1033.71 195.263 1035.06C218.416 1006.48 242.491 973.89 265.163 944.515L392.681 779.844C420.397 744.027 447.698 707.711 477.006 673.18C489.231 658.777 490.329 654.711 509.46 653.159Z"/><path fill="#E1E6ED" transform="scale(5.13379 5.13362)" d="M211.935 247.94C250.655 246.664 293.892 248.175 333.046 248.228L391.931 248.315C437.567 248.435 486.352 248.65 522.523 281.142C536.469 293.671 546.29 307.787 557.591 322.541L583.18 355.805C605.406 384.985 627.968 413.908 650.858 442.571C652.771 447.236 676.476 476.385 681.134 482.4L749.203 570.29C760.39 584.733 773.005 600.228 783.642 614.885C763.353 614.328 740.194 614.845 719.723 614.838L594.111 614.843L548.382 614.93C543.72 614.97 524.35 615.654 521.025 614.864C501.078 610.124 471.234 569.343 459.173 554.421C442.1 533.562 425.175 512.585 408.396 491.49L296.033 352.353C268.861 318.404 239.882 280.84 211.935 247.94Z"/><path fill="#E1E6ED" transform="scale(5.13379 5.13362)" d="M796.319 652.864C797.436 652.836 798.553 652.839 799.67 652.872C805.69 653.107 810.253 658.481 814.335 662.733L813.009 663.325C813.808 665.069 824.3 673.643 827.366 677.456C840.165 693.373 852.726 709.6 865.313 725.671L1106.07 1034.84C1090.62 1034.06 1071.34 1034.59 1055.44 1034.59C1025.78 1034.64 996.107 1034.52 966.441 1034.24C949.777 1034.08 933.113 1034.02 916.449 1034.06C876.697 1034.06 838.442 1032.96 804.654 1008.35C782.092 991.913 765.601 966.479 748.393 944.576L684.363 862.358C675.253 850.783 665.262 837.583 655.774 826.462L734.713 726.786L768.511 684.219C773.796 677.604 790.189 655.695 796.319 652.864Z"/><defs><linearGradient id="gradient_1" gradientUnits="userSpaceOnUse" x1="563.802" y1="444.617" x2="775.05402" y2="139.91901"><stop offset="0" stop-color="#243B5A"/><stop offset="1" stop-color="#3BAFAF"/></linearGradient></defs><path fill="url(#gradient_1)" transform="scale(5.13379 5.13362)" d="M650.858 442.571C673.438 412.346 697.788 381.659 720.905 351.724L749.178 314.897C777.963 277.3 792.769 257.175 843.366 250.835C871.314 247.333 895.819 248.282 923.854 248.195L1031.58 247.673C1049.4 247.624 1071.42 248.268 1088.67 247.601L885.294 499.274L834.413 562.392C826.804 571.725 794.151 613.509 783.642 614.885C773.005 600.228 760.39 584.733 749.203 570.29L681.134 482.4C676.476 476.385 652.771 447.236 650.858 442.571Z"/><path fill="#E1E6ED" transform="scale(5.13379 5.13362)" d="M1292.83 902.106Q1205.63 902.106 1139.68 868.087Q1073.24 833.574 1036.52 773.073Q1000.02 712.553 1000.02 635.949Q1000.02 558.73 1035.78 498.499Q1071.78 438.257 1134.29 404.185Q1196.8 370.236 1274.84 370.236Q1350.6 370.236 1411.27 402.565Q1472.55 434.852 1508.14 495.202Q1543.89 555.162 1543.89 638.17Q1543.89 646.845 1543.19 657.738Q1542.51 668.453 1541.59 677.39L1540.28 690.158L1115.32 690.158L1115.32 579.074L1452.35 579.074L1458.22 606.242L1383 640.353L1383.26 618.009Q1383.66 583.786 1369.71 558.644Q1356.01 533.59 1332.08 519.584Q1308.23 505.314 1275.73 505.314Q1242.92 505.314 1218.47 519.592Q1194.38 533.578 1180.96 558.676Q1167.53 584.147 1167.53 619.73L1167.53 641.947Q1167.53 678.107 1183.16 705.01Q1198.76 731.531 1227.43 745.868Q1256.87 760.585 1297.06 760.585Q1333.41 760.585 1360.19 749.834Q1387.17 739.08 1410.27 716.804L1420.74 706.704L1514.86 808.853L1506.29 818.472Q1469.84 859.422 1415.83 880.884Q1362.66 902.106 1292.83 902.106ZM1292.83 873.668Q1357.2 873.668 1405.33 854.456Q1453.08 835.483 1485.05 799.564L1495.67 809.018L1485.22 818.652L1409.68 736.672L1420.14 727.038L1430.01 737.271Q1402.89 763.428 1370.78 776.224Q1338.91 789.022 1297.06 789.022Q1250.16 789.022 1214.72 771.303Q1178.52 753.203 1158.57 719.294Q1139.09 685.768 1139.09 641.947L1139.09 619.73Q1139.09 577.111 1155.88 545.263Q1173.12 513.042 1204.13 495.035Q1235.22 476.876 1275.73 476.876Q1316.09 476.877 1346.45 495.042Q1377.18 513.029 1394.58 544.85Q1412.18 576.583 1411.69 618.342L1397.48 618.175L1391.6 605.226L1446.48 580.343L1452.35 593.292L1452.35 607.511L1129.54 607.511L1129.54 593.292L1143.76 593.292L1143.76 675.939L1129.54 675.939L1129.54 661.72L1527.44 661.72L1527.44 675.939L1513.3 674.488Q1514.16 666.096 1514.81 655.927Q1515.45 645.937 1515.45 638.17Q1515.45 562.995 1483.65 509.65Q1452.15 456.249 1397.9 427.662Q1343.49 398.673 1274.84 398.673Q1204.03 398.673 1147.9 429.153Q1092.21 459.51 1060.23 513.018Q1028.46 566.536 1028.46 635.949Q1028.46 704.642 1060.83 758.317Q1093.42 812.01 1152.72 842.814Q1212.53 873.668 1292.83 873.668ZM1292.83 887.887Q1209.08 887.887 1146.2 855.451Q1083.33 822.792 1048.67 765.695Q1014.24 708.598 1014.24 635.949Q1014.24 562.633 1048.01 505.758Q1082 448.883 1141.09 416.669Q1200.41 384.455 1274.84 384.455Q1347.04 384.455 1404.58 415.114Q1462.35 445.551 1495.9 502.426Q1529.67 559.079 1529.67 638.17Q1529.67 646.391 1529 656.833Q1528.33 667.274 1527.44 675.939L1129.54 675.939L1129.54 593.292L1452.35 593.292L1397.48 618.175Q1397.92 580.185 1382.15 551.747Q1366.59 523.31 1339.27 507.313Q1312.16 491.095 1275.73 491.095Q1239.07 491.095 1211.3 507.313Q1183.75 523.31 1168.42 551.969Q1153.31 580.629 1153.31 619.73L1153.31 641.947Q1153.31 681.938 1170.86 712.152Q1188.64 742.367 1221.07 758.585Q1253.51 774.804 1297.06 774.804Q1336.16 774.804 1365.48 763.029Q1395.03 751.254 1420.14 727.038L1495.67 809.018Q1461.46 847.453 1410.58 867.67Q1359.93 887.887 1292.83 887.887ZM1921.7 370.236Q1983.51 370.236 2032.3 394.867Q2082.18 419.685 2110.76 471.324Q2139.2 522.276 2139.2 600.846L2139.2 895.219L1968.8 895.219L1968.8 622.174Q1968.8 568.661 1946.6 544.76Q1924.79 521.088 1884.15 521.088Q1853.47 521.088 1829.7 533.657Q1807.02 545.753 1794.17 570.885Q1780.84 596.741 1780.84 638.837L1780.84 895.219L1610.44 895.219L1610.44 377.345L1774.18 377.345L1774.18 576.803L1718.25 487.022L1722.05 479.803Q1750.31 426.152 1803.29 398.104Q1855.49 370.236 1921.7 370.236ZM1921.7 398.673Q1862.6 398.673 1816.6 423.237Q1771.38 447.176 1747.21 493.057L1734.63 486.43L1746.7 478.912L1772.03 519.568L1759.96 527.086L1745.74 527.086L1745.74 391.564L1759.96 391.564L1759.96 405.783L1624.66 405.783L1624.66 391.564L1638.88 391.564L1638.88 881L1624.66 881L1624.66 866.781L1766.62 866.781L1766.62 881L1752.41 881L1752.41 638.837Q1752.41 589.844 1768.85 557.936Q1785.77 524.86 1816.41 508.519Q1846.41 492.65 1884.15 492.65Q1937.26 492.65 1967.44 525.409Q1997.24 557.494 1997.24 622.174L1997.24 881L1983.02 881L1983.02 866.781L2124.98 866.781L2124.98 881L2110.76 881L2110.76 600.846Q2110.76 529.675 2085.88 485.095Q2061.59 441.201 2019.49 420.253Q1976.74 398.673 1921.7 398.673ZM1921.7 384.455Q1980.13 384.455 2025.9 407.56Q2071.88 430.443 2098.32 478.209Q2124.98 525.976 2124.98 600.846L2124.98 881L1983.02 881L1983.02 622.174Q1983.02 563.078 1957.02 535.084Q1931.03 506.869 1884.15 506.869Q1849.94 506.869 1823.05 521.088Q1796.39 535.307 1781.51 564.411Q1766.62 593.292 1766.62 638.837L1766.62 881L1624.66 881L1624.66 391.564L1759.96 391.564L1759.96 527.086L1734.63 486.43Q1760.85 436.664 1809.95 410.67Q1859.05 384.455 1921.7 384.455ZM2466.81 902.106Q2394.68 902.106 2335.69 869.201Q2276.68 836.157 2242.51 776.299Q2208.42 716.592 2208.42 635.949Q2208.42 555.528 2242.51 495.821Q2276.69 435.942 2335.7 403.131Q2394.68 370.236 2466.81 370.236Q2532.9 370.236 2582.46 399.542Q2632.46 428.87 2660.1 488.443Q2687.2 546.832 2687.2 635.949Q2687.2 724.92 2661.33 783.646Q2634.81 843.839 2584.64 873.27Q2535.31 902.106 2466.81 902.106ZM2466.81 873.668Q2527.61 873.668 2570.25 848.74Q2612.5 823.962 2635.3 772.182Q2658.76 718.935 2658.76 635.949Q2658.76 553.108 2634.31 500.412Q2610.41 448.902 2567.99 424.02Q2525.12 398.673 2466.81 398.673Q2402.07 398.673 2349.52 427.985Q2297.45 456.937 2267.21 509.919Q2236.86 563.073 2236.86 635.949Q2236.86 709.046 2267.21 762.2Q2297.46 815.203 2349.54 844.366Q2402.07 873.668 2466.81 873.668ZM2491.24 757.475Q2522.79 757.475 2547.51 743.352Q2572.18 729.167 2586.93 701.846Q2601.88 674.125 2601.88 635.949Q2601.88 597.175 2586.99 570.166Q2572.27 543.472 2547.55 529.458Q2522.75 515.089 2491.24 515.089Q2459.52 515.089 2434.83 529.392Q2410.2 543.47 2395.24 570.236Q2380.38 597.175 2380.38 635.949Q2380.38 674.125 2395.34 701.846Q2410.28 729.169 2434.83 743.394Q2459.47 757.475 2491.24 757.475ZM2491.24 785.912Q2451.92 785.912 2420.58 768Q2389.14 749.789 2370.31 715.349Q2351.94 681.308 2351.94 635.949Q2351.94 589.854 2370.41 556.364Q2389.23 522.7 2420.58 504.786Q2451.88 486.652 2491.24 486.652Q2530.39 486.652 2561.57 504.72Q2593.29 522.698 2611.89 556.433Q2630.32 589.854 2630.32 635.949Q2630.32 681.308 2611.95 715.349Q2593.37 749.791 2561.62 768.043Q2530.34 785.912 2491.24 785.912ZM2606.1 881L2606.1 780.802L2608.55 635.265L2622.77 635.504L2608.58 636.394L2599.44 490.652L2599.44 191.613L2769.84 191.613L2769.84 895.219L2606.1 895.219L2606.1 881ZM2634.54 881L2620.32 881L2620.32 866.781L2755.62 866.781L2755.62 881L2741.4 881L2741.4 205.832L2755.62 205.832L2755.62 220.05L2613.66 220.05L2613.66 205.832L2627.88 205.832L2627.88 490.207L2613.66 490.207L2627.85 489.317L2636.99 635.179L2634.54 780.802L2634.54 881ZM2466.81 887.887Q2398.38 887.887 2342.61 856.784Q2287.07 825.68 2254.86 769.25Q2222.64 712.819 2222.64 635.949Q2222.64 559.301 2254.86 502.87Q2287.07 446.439 2342.61 415.558Q2398.38 384.455 2466.81 384.455Q2529.01 384.455 2575.22 411.781Q2621.43 438.886 2647.21 494.428Q2672.98 549.97 2672.98 635.949Q2672.98 721.928 2648.32 777.914Q2623.66 833.9 2577.44 861.005Q2531.46 887.887 2466.81 887.887ZM2491.24 771.693Q2526.57 771.693 2554.56 755.697Q2582.78 739.479 2599.44 708.598Q2616.1 677.716 2616.1 635.949Q2616.1 593.515 2599.44 563.3Q2582.78 533.085 2554.56 517.089Q2526.57 500.871 2491.24 500.871Q2455.7 500.871 2427.7 517.089Q2399.71 533.085 2382.83 563.3Q2366.16 593.515 2366.16 635.949Q2366.16 677.716 2382.83 708.598Q2399.71 739.479 2427.7 755.697Q2455.7 771.693 2491.24 771.693ZM2620.32 881L2620.32 780.802L2622.77 635.504L2613.66 490.207L2613.66 205.832L2755.62 205.832L2755.62 881L2620.32 881ZM3172.28 881L3172.28 785.69L3186.5 785.69L3173.31 790.994L3163.62 766.891L3163.62 593.292Q3163.62 554.062 3140.53 533.191Q3116.79 511.535 3064.53 511.535Q3028.12 511.535 2992.48 523.063Q2957.06 534.316 2932.18 553.645L2918.64 564.163L2854.56 439.382L2864.49 432.233Q2907.04 401.612 2965.75 385.831Q3023.77 370.236 3084.08 370.236Q3201.53 370.236 3267.29 426.529Q3334.02 483.422 3334.02 601.291L3334.02 895.219L3172.28 895.219L3172.28 881ZM3200.72 881L3186.5 881L3186.5 866.781L3319.8 866.781L3319.8 881L3305.58 881L3305.58 601.291Q3305.58 496.547 3248.79 448.132Q3191.02 398.673 3084.08 398.673Q3027.53 398.673 2973.13 413.293Q2919.43 427.727 2881.11 455.314L2872.8 443.773L2885.45 437.278L2936.1 535.921L2923.46 542.416L2914.73 531.187Q2943.62 508.748 2983.73 496.007Q3023.63 483.097 3064.53 483.097Q3127.81 483.097 3159.6 512.095Q3192.06 541.434 3192.06 593.292L3192.06 764.14L3177.84 764.14L3191.03 758.836L3200.72 782.939L3200.72 881ZM3037.65 902.106Q2977.38 902.106 2933.4 881.426Q2888.84 860.358 2864.87 823.423Q2841.03 786.063 2841.03 739.701Q2841.03 692.43 2864.39 656.039Q2888.2 619.325 2938.81 598.984Q2987.8 579.296 3064.98 579.296L3208.94 579.296L3208.94 690.38L3080.75 690.38Q3035.86 690.38 3021.2 703.112Q3007.43 715.079 3007.43 733.925Q3007.43 753.579 3022.99 765.529Q3040.39 778.581 3072.75 778.581Q3104.66 778.581 3129.77 763.869Q3153.84 749.763 3164.52 721.176L3178.73 683.094L3214.34 792.114L3212.92 796.513Q3196.17 848.239 3150.49 875.641Q3106.23 902.106 3037.65 902.106ZM3037.65 873.668Q3098.37 873.668 3135.86 851.256Q3172.4 829.338 3185.86 787.753L3199.39 792.133L3185.87 796.547L3164.32 730.563L3177.84 726.149L3191.16 731.122Q3176.95 769.185 3144.15 788.405Q3112.38 807.018 3072.75 807.018Q3030.91 807.018 3005.66 788.078Q2979 767.591 2979 733.925Q2979 702.117 3002.55 681.647Q3025.23 661.942 3080.75 661.942L3194.72 661.942L3194.72 676.161L3180.5 676.161L3180.5 593.515L3194.72 593.515L3194.72 607.733L3064.98 607.733Q2993.3 607.733 2949.42 625.37Q2907.16 642.353 2888.32 671.4Q2869.47 700.771 2869.47 739.701Q2869.47 777.763 2888.73 807.942Q2908.3 838.102 2945.5 855.692Q2983.73 873.668 3037.65 873.668ZM3186.5 881L3186.5 785.69L3177.84 764.14L3177.84 593.292Q3177.84 547.748 3150.07 522.643Q3122.3 497.316 3064.53 497.316Q3025.87 497.316 2988.11 509.535Q2950.34 521.532 2923.46 542.416L2872.8 443.773Q2913.24 414.669 2969.44 399.562Q3025.65 384.455 3084.08 384.455Q3196.28 384.455 3258.04 437.331Q3319.8 489.984 3319.8 601.291L3319.8 881L3186.5 881ZM3037.65 887.887Q2980.55 887.887 2939.45 868.559Q2898.57 849.23 2876.8 815.683Q2855.25 781.913 2855.25 739.701Q2855.25 696.601 2876.36 663.72Q2897.68 630.839 2944.12 612.177Q2990.55 593.515 3064.98 593.515L3194.72 593.515L3194.72 676.161L3080.75 676.161Q3030.54 676.161 3011.88 692.379Q2993.22 708.598 2993.22 733.925Q2993.22 760.585 3014.32 776.803Q3035.65 792.799 3072.75 792.799Q3108.52 792.799 3136.96 776.137Q3165.4 759.474 3177.84 726.149L3199.39 792.133Q3184.28 838.788 3143.18 863.449Q3102.3 887.887 3037.65 887.887ZM3434.05 881L3434.05 377.345L3597.79 377.345L3597.79 529.975L3570.68 535.988L3549.38 490.335L3551.76 484.559Q3575.21 427.743 3627.78 398.672Q3679.21 370.236 3752.41 370.236L3766.63 370.236L3766.63 531.928L3750.4 529.61Q3741.45 528.331 3734.28 527.698Q3727.55 527.086 3720.64 527.086Q3667.17 527.086 3635.51 556.786Q3604.45 586.094 3604.45 649.945L3604.45 895.219L3434.05 895.219L3434.05 881ZM3462.49 881L3448.27 881L3448.27 866.781L3590.23 866.781L3590.23 881L3576.01 881L3576.01 649.945Q3576.01 573.83 3616.05 536.044Q3655.92 498.649 3720.64 498.649Q3728.84 498.649 3736.78 499.37Q3744.72 500.071 3754.43 501.458L3752.41 515.534L3738.2 515.534L3738.2 384.455L3752.41 384.455L3752.41 398.673Q3686.55 398.673 3641.55 423.558Q3597.7 447.806 3578.05 495.409L3564.9 489.984L3577.79 483.971L3596.45 523.962L3583.57 529.975L3569.35 529.975L3569.35 391.564L3583.57 391.564L3583.57 405.783L3448.27 405.783L3448.27 391.564L3462.49 391.564L3462.49 881ZM3448.27 881L3448.27 391.564L3583.57 391.564L3583.57 529.975L3564.9 489.984Q3586.45 437.775 3634.67 411.115Q3682.88 384.455 3752.41 384.455L3752.41 515.534Q3743.08 514.201 3735.53 513.534Q3728.2 512.868 3720.64 512.868Q3661.55 512.868 3625.78 546.415Q3590.23 579.962 3590.23 649.945L3590.23 881L3448.27 881Z"/></svg>