<?xml version="1.0" encoding="utf-8" ?><svg xmlns="http://www.w3.org/2000/svg" xmlns:xlink="http://www.w3.org/1999/xlink" width="3615" height="1231" viewBox="0 0 3615 1231"><defs><linearGradient id="gradient_0" gradientUnits="userSpaceOnUse" x1="240.879" y1="870.87" x2="526.49402" y2="455.54199"><stop offset="0" stop-color="#243B5A"/><stop offset="1" stop-color="#3BAFAF"/></linearGradient></defs><path fill="url(#gradient_0)" transform="scale(0.999977 1.00009)" d="M477.838 622.668C496.582 621.552 523.953 622.448 543.397 622.441L668.853 622.362L708.819 622.48C715.066 622.515 726.061 622.93 731.73 622.2C717.757 638.553 703.318 658.372 689.573 675.504C644.073 732.66 599.044 790.189 554.489 848.086L514.612 899.8C488.618 933.703 472.473 959.38 429.687 973.443C396.245 982.424 357.216 980.197 322.296 980.163L229.341 980.167C217.817 980.174 193.757 979.597 183.143 980.867C204.859 954.055 227.439 923.492 248.704 895.94L368.307 741.49C394.303 707.896 419.909 673.835 447.398 641.447C458.865 627.938 459.894 624.124 477.838 622.668Z"/><path fill="#243B5A" transform="scale(0.999977 1.00009)" d="M198.781 242.602C235.097 241.405 275.65 242.822 312.374 242.872L367.604 242.953C410.407 243.066 456.164 243.268 490.089 273.743C503.17 285.494 512.381 298.734 522.981 312.572L546.981 343.772C567.828 371.14 588.99 398.268 610.459 425.152C612.253 429.527 634.487 456.867 638.855 462.508L702.7 544.943C713.192 558.49 725.024 573.023 735.001 586.77C715.971 586.248 694.25 586.733 675.049 586.726L557.234 586.731L514.344 586.813C509.971 586.85 491.804 587.492 488.685 586.751C469.976 582.305 441.985 544.055 430.672 530.059C414.659 510.495 398.785 490.82 383.047 471.035L277.659 340.534C252.172 308.692 224.992 273.46 198.781 242.602Z"/><path fill="#243B5A" transform="scale(0.999977 1.00009)" d="M746.891 622.392C747.938 622.366 748.987 622.368 750.034 622.399C755.681 622.619 759.96 627.66 763.789 631.648L762.545 632.204C763.295 633.839 773.135 641.881 776.011 645.457C788.016 660.387 799.797 675.606 811.603 690.68L1037.41 980.658C1022.92 979.923 1004.84 980.426 989.931 980.425C962.105 980.468 934.278 980.357 906.453 980.092C890.824 979.946 875.194 979.89 859.565 979.923C822.28 979.924 786.399 978.891 754.709 955.808C733.547 940.396 718.08 916.541 701.94 895.997L641.884 818.883C633.34 808.026 623.969 795.646 615.069 785.214L689.109 691.726L720.809 651.801C725.767 645.597 741.142 625.047 746.891 622.392Z"/><defs><linearGradient id="gradient_1" gradientUnits="userSpaceOnUse" x1="563.802" y1="444.617" x2="775.05402" y2="139.91901"><stop offset="0" stop-color="#3BAFAF"/><stop offset="1" stop-color="#7FC6CC"/></linearGradient></defs><path fill="url(#gradient_1)" transform="scale(0.999977 1.00009)" d="M610.459 425.152C631.637 396.803 654.476 368.02 676.158 339.944L702.676 305.403C729.674 270.139 743.561 251.264 791.018 245.317C817.231 242.032 840.215 242.922 866.51 242.841L967.55 242.352C984.261 242.305 1004.92 242.909 1021.1 242.284L830.344 478.335L782.62 537.536C775.484 546.29 744.858 585.48 735.001 586.77C725.024 573.023 713.192 558.49 702.7 544.943L638.855 462.508C634.487 456.867 612.253 429.527 610.459 425.152Z"/><path fill="#243B5A" transform="scale(0.999977 1.00009)" d="M1231.27 866.271Q1147.51 866.271 1084.18 833.598Q1020.36 800.45 985.091 742.342Q950.035 684.217 950.035 610.643Q950.035 536.479 984.383 478.631Q1018.96 420.772 1078.99 388.048Q1139.03 355.442 1213.98 355.442Q1286.74 355.442 1345.02 386.492Q1403.87 417.502 1438.06 475.464Q1472.39 533.053 1472.39 612.777Q1472.39 621.108 1471.72 631.571Q1471.06 641.861 1470.18 650.445L1468.92 662.708L1060.78 662.708L1060.78 556.018L1384.47 556.018L1390.11 582.112L1317.86 614.873L1318.11 593.413Q1318.5 560.544 1305.1 536.397Q1291.95 512.333 1268.97 498.882Q1246.06 485.176 1214.84 485.176Q1183.33 485.176 1159.84 498.889Q1136.71 512.322 1123.82 536.427Q1110.92 560.891 1110.92 595.066L1110.92 616.404Q1110.92 651.134 1125.93 676.973Q1140.92 702.444 1168.45 716.214Q1196.72 730.349 1235.32 730.349Q1270.24 730.349 1295.96 720.023Q1321.87 709.694 1344.05 688.3L1354.11 678.599L1444.51 776.707L1436.28 785.945Q1401.27 825.276 1349.4 845.888Q1298.33 866.271 1231.27 866.271ZM1231.27 838.958Q1293.08 838.958 1339.32 820.506Q1385.17 802.283 1415.88 767.785L1426.08 776.865L1416.04 786.119L1343.49 707.382L1353.54 698.128L1363.02 707.957Q1336.97 733.079 1306.13 745.369Q1275.52 757.661 1235.32 757.661Q1190.28 757.661 1156.24 740.643Q1121.47 723.259 1102.32 690.691Q1083.61 658.491 1083.61 616.404L1083.61 595.066Q1083.61 554.133 1099.73 523.545Q1116.29 492.598 1146.07 475.304Q1175.94 457.864 1214.84 457.864Q1253.61 457.864 1282.76 475.311Q1312.28 492.587 1328.99 523.148Q1345.89 553.626 1345.43 593.732L1331.77 593.573L1326.13 581.135L1378.83 557.237L1384.47 569.674L1384.47 583.331L1074.44 583.331L1074.44 569.674L1088.09 569.674L1088.09 649.051L1074.44 649.051L1074.44 635.395L1456.6 635.395L1456.6 649.051L1443.01 647.658Q1443.84 639.598 1444.46 629.831Q1445.07 620.236 1445.07 612.777Q1445.07 540.575 1414.53 489.34Q1384.28 438.053 1332.18 410.597Q1279.92 382.754 1213.98 382.754Q1145.97 382.754 1092.07 412.029Q1038.58 441.184 1007.87 492.575Q977.348 543.977 977.348 610.643Q977.348 676.619 1008.44 728.17Q1039.74 779.739 1096.7 809.325Q1154.14 838.958 1231.27 838.958ZM1231.27 852.615Q1150.82 852.615 1090.44 821.461Q1030.05 790.095 996.765 735.256Q963.691 680.418 963.691 610.643Q963.691 540.228 996.125 485.603Q1028.77 430.978 1085.53 400.038Q1142.5 369.098 1213.98 369.098Q1283.33 369.098 1338.6 398.544Q1394.08 427.777 1426.3 482.402Q1458.73 536.814 1458.73 612.777Q1458.73 620.672 1458.09 630.701Q1457.45 640.729 1456.6 649.051L1074.44 649.051L1074.44 569.674L1384.47 569.674L1331.77 593.573Q1332.2 557.085 1317.05 529.772Q1302.11 502.46 1275.86 487.097Q1249.83 471.52 1214.84 471.52Q1179.63 471.52 1152.96 487.097Q1126.5 502.46 1111.78 529.986Q1097.27 557.512 1097.27 595.066L1097.27 616.404Q1097.27 654.812 1114.12 683.832Q1131.19 712.852 1162.35 728.428Q1193.5 744.005 1235.32 744.005Q1272.88 744.005 1301.04 732.696Q1329.42 721.387 1353.54 698.128L1426.08 776.865Q1393.22 813.78 1344.36 833.197Q1295.71 852.615 1231.27 852.615ZM1835.25 355.442Q1894.62 355.442 1941.48 379.099Q1989.38 402.935 2016.84 452.531Q2044.15 501.467 2044.15 576.929L2044.15 859.656L1880.49 859.656L1880.49 597.414Q1880.49 546.017 1859.17 523.061Q1838.23 500.326 1799.19 500.326Q1769.72 500.326 1746.9 512.398Q1725.11 524.016 1712.77 548.153Q1699.97 572.986 1699.97 613.417L1699.97 859.656L1536.31 859.656L1536.31 362.27L1693.57 362.27L1693.57 553.837L1639.85 467.608L1643.51 460.674Q1670.65 409.146 1721.53 382.208Q1771.66 355.442 1835.25 355.442ZM1835.25 382.754Q1778.5 382.754 1734.31 406.346Q1690.88 429.338 1667.67 473.404L1655.59 467.039L1667.18 459.818L1691.5 498.867L1679.91 506.087L1666.26 506.087L1666.26 375.926L1679.91 375.926L1679.91 389.583L1549.97 389.583L1549.97 375.926L1563.62 375.926L1563.62 846L1549.97 846L1549.97 832.344L1686.31 832.344L1686.31 846L1672.66 846L1672.66 613.417Q1672.66 566.362 1688.45 535.717Q1704.7 503.949 1734.13 488.255Q1762.94 473.014 1799.19 473.014Q1850.2 473.014 1879.19 504.477Q1907.8 535.292 1907.8 597.414L1907.8 846L1894.15 846L1894.15 832.344L2030.49 832.344L2030.49 846L2016.84 846L2016.84 576.929Q2016.84 508.574 1992.94 465.757Q1969.61 423.6 1929.17 403.48Q1888.12 382.754 1835.25 382.754ZM1835.25 369.098Q1891.37 369.098 1935.33 391.29Q1979.49 413.268 2004.89 459.144Q2030.49 505.021 2030.49 576.929L2030.49 846L1894.15 846L1894.15 597.414Q1894.15 540.655 1869.18 513.769Q1844.22 486.67 1799.19 486.67Q1766.33 486.67 1740.51 500.326Q1714.91 513.982 1700.61 541.935Q1686.31 569.674 1686.31 613.417L1686.31 846L1549.97 846L1549.97 375.926L1679.91 375.926L1679.91 506.087L1655.59 467.039Q1680.77 419.242 1727.92 394.277Q1775.08 369.098 1835.25 369.098ZM2358.79 866.271Q2289.52 866.271 2232.86 834.668Q2176.19 802.931 2143.37 745.441Q2110.63 688.096 2110.63 610.643Q2110.63 533.404 2143.37 476.059Q2176.2 418.548 2232.88 387.036Q2289.52 355.442 2358.79 355.442Q2422.27 355.442 2469.87 383.589Q2517.89 411.756 2544.44 468.973Q2570.46 525.052 2570.46 610.643Q2570.46 696.095 2545.62 752.497Q2520.16 810.309 2471.96 838.575Q2424.58 866.271 2358.79 866.271ZM2358.79 838.958Q2417.19 838.958 2458.15 815.016Q2498.72 791.218 2520.62 741.487Q2543.15 690.346 2543.15 610.643Q2543.15 531.079 2519.67 480.469Q2496.71 430.996 2455.97 407.099Q2414.8 382.754 2358.79 382.754Q2296.62 382.754 2246.15 410.907Q2196.14 438.713 2167.09 489.599Q2137.94 540.651 2137.94 610.643Q2137.94 680.849 2167.09 731.9Q2196.15 782.806 2246.17 810.815Q2296.62 838.958 2358.79 838.958ZM2382.26 727.361Q2412.56 727.361 2436.3 713.797Q2460 700.174 2474.16 673.933Q2488.53 647.309 2488.53 610.643Q2488.53 573.404 2474.22 547.463Q2460.08 521.824 2436.34 508.365Q2412.52 494.565 2382.26 494.565Q2351.79 494.565 2328.08 508.302Q2304.42 521.823 2290.06 547.53Q2275.79 573.404 2275.79 610.643Q2275.79 647.309 2290.15 673.933Q2304.5 700.176 2328.08 713.838Q2351.75 727.361 2382.26 727.361ZM2382.26 754.674Q2344.5 754.674 2314.39 737.471Q2284.2 719.98 2266.12 686.903Q2248.48 654.207 2248.48 610.643Q2248.48 566.372 2266.21 534.206Q2284.28 501.874 2314.39 484.669Q2344.45 467.253 2382.26 467.252Q2419.86 467.252 2449.81 484.605Q2480.27 501.873 2498.14 534.273Q2515.84 566.372 2515.84 610.643Q2515.84 654.208 2498.2 686.903Q2480.35 719.981 2449.85 737.511Q2419.82 754.674 2382.26 754.674ZM2492.58 846L2492.58 749.766L2494.93 609.987L2508.58 610.216L2494.95 611.071L2486.18 471.094L2486.18 183.885L2649.84 183.885L2649.84 859.656L2492.58 859.656L2492.58 846ZM2519.89 846L2506.24 846L2506.24 832.344L2636.18 832.344L2636.18 846L2622.53 846L2622.53 197.542L2636.18 197.542L2636.18 211.198L2499.84 211.198L2499.84 197.542L2513.49 197.542L2513.49 470.667L2499.84 470.667L2513.46 469.812L2522.25 609.903L2519.89 749.766L2519.89 846ZM2358.79 852.615Q2293.07 852.615 2239.51 822.742Q2186.17 792.869 2155.23 738.67Q2124.29 684.472 2124.29 610.643Q2124.29 537.027 2155.23 482.829Q2186.17 428.631 2239.51 398.971Q2293.07 369.098 2358.79 369.098Q2418.54 369.098 2462.92 395.344Q2507.3 421.376 2532.06 474.721Q2556.81 528.065 2556.81 610.643Q2556.81 693.221 2533.12 746.992Q2509.44 800.764 2465.05 826.796Q2420.89 852.615 2358.79 852.615ZM2382.26 741.018Q2416.19 741.018 2443.08 725.654Q2470.18 710.078 2486.18 680.418Q2502.18 650.758 2502.18 610.643Q2502.18 569.888 2486.18 540.868Q2470.18 511.849 2443.08 496.485Q2416.19 480.909 2382.26 480.909Q2348.12 480.909 2321.24 496.485Q2294.35 511.849 2278.13 540.868Q2262.13 569.888 2262.13 610.643Q2262.13 650.758 2278.13 680.418Q2294.35 710.078 2321.24 725.654Q2348.12 741.018 2382.26 741.018ZM2506.24 846L2506.24 749.766L2508.58 610.216L2499.84 470.667L2499.84 197.542L2636.18 197.542L2636.18 846L2506.24 846ZM3036.36 846L3036.36 754.46L3050.02 754.46L3037.35 759.555L3028.04 736.405L3028.04 569.674Q3028.04 531.996 3005.87 511.95Q2983.06 491.151 2932.87 491.151Q2897.9 491.151 2863.67 502.224Q2829.65 513.031 2805.75 531.595L2792.75 541.697L2731.21 421.853L2740.75 414.987Q2781.61 385.577 2838 370.42Q2893.73 355.442 2951.65 355.442Q3064.45 355.442 3127.61 409.508Q3191.7 464.15 3191.7 577.356L3191.7 859.656L3036.36 859.656L3036.36 846ZM3063.67 846L3050.02 846L3050.02 832.344L3178.04 832.344L3178.04 846L3164.39 846L3164.39 577.356Q3164.39 476.756 3109.84 430.256Q3054.36 382.754 2951.65 382.754Q2897.33 382.754 2845.09 396.796Q2793.51 410.658 2756.7 437.154L2748.73 426.07L2760.87 419.832L2809.52 514.572L2797.38 520.811L2789 510.026Q2816.74 488.475 2855.27 476.237Q2893.59 463.838 2932.87 463.838Q2993.64 463.838 3024.18 491.689Q3055.35 519.868 3055.35 569.674L3055.35 733.763L3041.7 733.763L3054.37 728.668L3063.67 751.818L3063.67 846ZM2907.05 866.271Q2849.16 866.271 2806.93 846.409Q2764.13 826.175 2741.11 790.701Q2718.21 754.819 2718.21 710.291Q2718.21 664.89 2740.65 629.939Q2763.52 594.677 2812.13 575.14Q2859.18 556.232 2933.3 556.231L3071.57 556.231L3071.57 662.921L2948.45 662.921Q2905.33 662.921 2891.26 675.149Q2878.03 686.643 2878.03 704.743Q2878.03 723.62 2892.97 735.097Q2909.69 747.632 2940.77 747.632Q2971.42 747.632 2995.53 733.503Q3018.65 719.955 3028.9 692.499L3042.56 655.924L3076.75 760.63L3075.39 764.855Q3059.3 814.535 3015.43 840.853Q2972.92 866.271 2907.05 866.271ZM2907.05 838.958Q2965.38 838.958 3001.38 817.433Q3036.47 796.381 3049.4 756.441L3062.39 760.648L3049.41 764.888L3028.71 701.515L3041.7 697.275L3054.49 702.051Q3040.84 738.609 3009.34 757.068Q2978.83 774.945 2940.77 774.945Q2900.58 774.945 2876.33 756.754Q2850.72 737.077 2850.72 704.743Q2850.72 674.193 2873.34 654.534Q2895.12 635.608 2948.45 635.608L3057.91 635.608L3057.91 649.265L3044.26 649.265L3044.26 569.888L3057.91 569.888L3057.91 583.544L2933.3 583.544Q2864.46 583.544 2822.31 600.483Q2781.73 616.794 2763.63 644.692Q2745.53 672.901 2745.53 710.291Q2745.53 746.847 2764.02 775.832Q2782.82 804.799 2818.55 821.693Q2855.27 838.958 2907.05 838.958ZM3050.02 846L3050.02 754.46L3041.7 733.763L3041.7 569.674Q3041.7 525.932 3015.02 501.82Q2988.35 477.495 2932.87 477.495Q2895.74 477.495 2859.47 489.23Q2823.2 500.753 2797.38 520.811L2748.73 426.07Q2787.56 398.118 2841.55 383.608Q2895.53 369.098 2951.65 369.098Q3059.41 369.098 3118.73 419.882Q3178.04 470.453 3178.04 577.356L3178.04 846L3050.02 846ZM2907.05 852.615Q2852.22 852.615 2812.74 834.051Q2773.48 815.487 2752.57 783.267Q2731.87 750.833 2731.87 710.291Q2731.87 668.896 2752.14 637.315Q2772.62 605.735 2817.22 587.812Q2861.82 569.888 2933.3 569.888L3057.91 569.888L3057.91 649.265L2948.45 649.265Q2900.23 649.265 2882.3 664.841Q2864.38 680.418 2864.38 704.743Q2864.38 730.349 2884.65 745.925Q2905.13 761.289 2940.77 761.289Q2975.12 761.289 3002.43 745.285Q3029.75 729.282 3041.7 697.275L3062.39 760.648Q3047.88 805.458 3008.41 829.143Q2969.15 852.615 2907.05 852.615ZM3287.77 846L3287.77 362.27L3445.03 362.27L3445.03 508.861L3419 514.636L3398.54 470.79L3400.83 465.243Q3423.35 410.674 3473.84 382.753Q3523.23 355.442 3593.54 355.442L3607.2 355.442L3607.2 510.737L3591.61 508.511Q3583.01 507.283 3576.12 506.675Q3569.66 506.087 3563.03 506.087Q3511.67 506.087 3481.26 534.612Q3451.43 562.761 3451.43 624.086L3451.43 859.656L3287.77 859.656L3287.77 846ZM3315.08 846L3301.43 846L3301.43 832.344L3437.78 832.344L3437.78 846L3424.12 846L3424.12 624.086Q3424.12 550.982 3462.57 514.691Q3500.87 478.775 3563.03 478.775Q3570.9 478.775 3578.53 479.468Q3586.15 480.14 3595.47 481.473L3593.54 494.992L3579.89 494.992L3579.89 369.098L3593.54 369.098L3593.54 382.754Q3530.28 382.754 3487.06 406.654Q3444.95 429.943 3426.07 475.664L3413.45 470.453L3425.83 464.678L3443.75 503.086L3431.37 508.861L3417.72 508.861L3417.72 375.926L3431.37 375.926L3431.37 389.583L3301.43 389.583L3301.43 375.926L3315.08 375.926L3315.08 846ZM3301.43 846L3301.43 375.926L3431.37 375.926L3431.37 508.861L3413.45 470.453Q3434.15 420.309 3480.45 394.704Q3526.75 369.098 3593.54 369.098L3593.54 494.992Q3584.58 493.711 3577.33 493.071Q3570.28 492.431 3563.03 492.431Q3506.27 492.431 3471.92 524.651Q3437.78 556.872 3437.78 624.086L3437.78 846L3301.43 846Z"/></svg>