<?xml version="1.0" encoding="utf-8" ?><svg xmlns="http://www.w3.org/2000/svg" xmlns:xlink="http://www.w3.org/1999/xlink" width="3823" height="1316" viewBox="0 0 3823 1316"><defs><linearGradient id="gradient_0" gradientUnits="userSpaceOnUse" x1="240.879" y1="870.87" x2="526.49402" y2="455.54199"><stop offset="0" stop-color="#EDF3F3"/><stop offset="1" stop-color="#001845"/></linearGradient></defs><path fill="url(#gradient_0)" transform="scale(0.999916 0.999847)" d="M505 672.773C524.81 671.593 553.737 672.54 574.285 672.533L706.874 672.45L749.111 672.574C755.713 672.611 767.333 673.05 773.325 672.278C758.557 689.561 743.298 710.507 728.771 728.612C680.685 789.018 633.096 849.817 586.008 911.004L543.864 965.659C516.393 1001.49 499.33 1028.62 454.112 1043.49C418.769 1052.98 377.521 1050.63 340.617 1050.59L242.377 1050.59C230.198 1050.6 204.771 1049.99 193.554 1051.33C216.504 1023 240.368 990.697 262.842 961.579L389.243 798.35C416.717 762.846 443.779 726.848 472.83 692.62C484.948 678.342 486.036 674.312 505 672.773Z"/><path fill="#EDF3F3" transform="scale(0.999916 0.999847)" d="M210.08 271.102C248.461 269.837 291.319 271.335 330.13 271.388L388.5 271.474C433.736 271.593 482.094 271.806 517.948 304.014C531.772 316.433 541.507 330.425 552.709 345.05L578.074 378.023C600.106 406.947 622.471 435.617 645.16 464.029C647.056 468.654 670.554 497.547 675.171 503.509L742.644 590.63C753.733 604.947 766.238 620.306 776.781 634.834C756.67 634.283 733.714 634.795 713.422 634.788L588.909 634.793L543.581 634.88C538.96 634.919 519.76 635.597 516.464 634.814C496.691 630.115 467.109 589.691 455.153 574.9C438.23 554.224 421.453 533.43 404.821 512.52L293.442 374.601C266.507 340.949 237.782 303.714 210.08 271.102Z"/><path fill="#EDF3F3" transform="scale(0.999916 0.999847)" d="M789.348 672.481C790.454 672.453 791.562 672.456 792.669 672.489C798.637 672.722 803.159 678.049 807.206 682.264L805.891 682.851C806.683 684.579 817.083 693.078 820.123 696.858C832.81 712.636 845.261 728.72 857.738 744.651L1096.38 1051.11C1081.07 1050.34 1061.96 1050.87 1046.2 1050.87C1016.79 1050.91 987.386 1050.79 957.98 1050.51C941.462 1050.36 924.943 1050.3 908.426 1050.34C869.021 1050.34 831.101 1049.25 797.609 1024.85C775.245 1008.56 758.899 983.351 741.841 961.64L678.371 880.141C669.341 868.668 659.438 855.584 650.032 844.559L728.281 745.757L761.783 703.562C767.022 697.005 783.271 675.288 789.348 672.481Z"/><defs><linearGradient id="gradient_1" gradientUnits="userSpaceOnUse" x1="563.802" y1="444.617" x2="775.05402" y2="139.91901"><stop offset="0" stop-color="#002855"/><stop offset="1" stop-color="#7FC6CC"/></linearGradient></defs><path fill="url(#gradient_1)" transform="scale(0.999916 0.999847)" d="M645.16 464.029C667.542 434.069 691.679 403.65 714.594 373.978L742.619 337.473C771.152 300.205 785.828 280.257 835.983 273.972C863.686 270.5 887.977 271.441 915.766 271.355L1022.55 270.838C1040.21 270.789 1062.04 271.427 1079.14 270.766L877.544 520.236L827.108 582.802C819.566 592.053 787.198 633.471 776.781 634.834C766.238 620.306 753.733 604.947 742.644 590.63L675.171 503.509C670.554 497.547 647.056 468.654 645.16 464.029Z"/><path fill="#EDF3F3" transform="scale(0.999916 0.999847)" d="M1302.64 915.431Q1214.09 915.431 1147.13 880.888Q1079.67 845.845 1042.38 784.412Q1005.32 722.962 1005.32 645.179Q1005.32 566.772 1041.63 505.614Q1078.19 444.445 1141.65 409.849Q1205.13 375.378 1284.36 375.378Q1361.29 375.378 1422.9 408.205Q1485.11 440.988 1521.26 502.267Q1557.55 563.15 1557.55 647.435Q1557.55 656.242 1556.84 667.303Q1556.15 678.183 1555.22 687.257L1553.89 700.222L1122.4 700.222L1122.4 587.429L1464.61 587.429L1470.57 615.015L1394.19 649.651L1394.45 626.963Q1394.86 592.214 1380.7 566.685Q1366.79 541.245 1342.49 527.024Q1318.27 512.534 1285.27 512.534Q1251.95 512.534 1227.13 527.032Q1202.67 541.233 1189.04 566.717Q1175.41 592.58 1175.41 628.711L1175.41 651.27Q1175.41 687.986 1191.28 715.303Q1207.12 742.232 1236.23 756.789Q1266.12 771.732 1306.92 771.732Q1343.84 771.732 1371.03 760.816Q1398.43 749.896 1421.88 727.278L1432.51 717.023L1528.08 820.743L1519.38 830.51Q1482.37 872.09 1427.53 893.882Q1373.54 915.431 1302.64 915.431ZM1302.64 886.556Q1367.99 886.556 1416.87 867.048Q1465.35 847.782 1497.81 811.311L1508.6 820.91L1497.98 830.693L1421.28 747.452L1431.9 737.669L1441.92 748.06Q1414.39 774.619 1381.78 787.612Q1349.42 800.607 1306.92 800.607Q1259.3 800.607 1223.32 782.615Q1186.56 764.237 1166.31 729.807Q1146.53 695.764 1146.53 651.27L1146.53 628.711Q1146.53 585.436 1163.58 553.098Q1181.08 520.381 1212.57 502.097Q1244.14 483.659 1285.27 483.659Q1326.25 483.659 1357.08 502.105Q1388.28 520.368 1405.95 552.679Q1423.82 584.9 1423.32 627.301L1408.89 627.132L1402.93 613.983L1458.65 588.717L1464.61 601.866L1464.61 616.304L1136.83 616.304L1136.83 601.866L1151.27 601.866L1151.27 685.784L1136.83 685.784L1136.83 671.347L1540.86 671.347L1540.86 685.784L1526.49 684.311Q1527.37 675.79 1528.03 665.464Q1528.68 655.321 1528.68 647.435Q1528.68 571.103 1496.39 516.937Q1464.41 462.715 1409.32 433.688Q1354.07 404.253 1284.36 404.253Q1212.46 404.253 1155.47 435.202Q1098.93 466.025 1066.46 520.356Q1034.19 574.699 1034.19 645.179Q1034.19 714.929 1067.06 769.429Q1100.15 823.948 1160.37 855.227Q1221.1 886.556 1302.64 886.556ZM1302.64 900.993Q1217.59 900.993 1153.75 868.058Q1089.91 834.896 1054.72 776.921Q1019.75 718.945 1019.75 645.179Q1019.75 570.735 1054.04 512.985Q1088.56 455.235 1148.56 422.525Q1208.79 389.815 1284.36 389.815Q1357.68 389.815 1416.11 420.946Q1474.76 451.852 1508.82 509.602Q1543.11 567.126 1543.11 647.435Q1543.11 655.781 1542.44 666.384Q1541.76 676.986 1540.86 685.784L1136.83 685.784L1136.83 601.866L1464.61 601.866L1408.89 627.132Q1409.34 588.557 1393.32 559.682Q1377.53 530.807 1349.79 514.564Q1322.26 498.097 1285.27 498.097Q1248.05 498.097 1219.85 514.564Q1191.88 530.807 1176.31 559.907Q1160.97 589.008 1160.97 628.711L1160.97 651.27Q1160.97 691.875 1178.79 722.555Q1196.84 753.234 1229.77 769.702Q1262.71 786.17 1306.92 786.17Q1346.63 786.17 1376.4 774.214Q1406.41 762.258 1431.9 737.669L1508.6 820.91Q1473.86 859.937 1422.2 880.465Q1370.77 900.993 1302.64 900.993ZM1941.18 375.378Q2003.94 375.378 2053.48 400.388Q2104.13 425.588 2133.15 478.021Q2162.02 529.757 2162.02 609.536L2162.02 908.438L1989 908.438L1989 631.192Q1989 576.856 1966.46 552.587Q1944.32 528.551 1903.05 528.551Q1871.89 528.551 1847.77 541.313Q1824.73 553.595 1811.68 579.114Q1798.15 605.368 1798.15 648.111L1798.15 908.438L1625.13 908.438L1625.13 382.597L1791.39 382.597L1791.39 585.123L1734.6 493.961L1738.46 486.63Q1767.16 432.155 1820.95 403.675Q1873.95 375.378 1941.18 375.378ZM1941.18 404.253Q1881.17 404.253 1834.46 429.194Q1788.55 453.502 1764.01 500.088L1751.23 493.359L1763.49 485.726L1789.2 527.008L1776.95 534.642L1762.51 534.642L1762.51 397.034L1776.95 397.034L1776.95 411.472L1639.57 411.472L1639.57 397.034L1654 397.034L1654 894L1639.57 894L1639.57 879.562L1783.72 879.562L1783.72 894L1769.28 894L1769.28 648.111Q1769.28 598.365 1785.98 565.966Q1803.15 532.381 1834.26 515.789Q1864.73 499.676 1903.05 499.676Q1956.98 499.676 1987.62 532.939Q2017.87 565.517 2017.87 631.192L2017.87 894L2003.44 894L2003.44 879.562L2147.59 879.562L2147.59 894L2133.15 894L2133.15 609.536Q2133.15 537.27 2107.88 492.004Q2083.22 447.435 2040.47 426.165Q1997.07 404.253 1941.18 404.253ZM1941.18 389.815Q2000.5 389.815 2046.97 413.276Q2093.67 436.512 2120.52 485.013Q2147.59 533.514 2147.59 609.536L2147.59 894L2003.44 894L2003.44 631.192Q2003.44 571.187 1977.04 542.763Q1950.65 514.113 1903.05 514.113Q1868.31 514.113 1841.02 528.551Q1813.94 542.988 1798.83 572.54Q1783.72 601.866 1783.72 648.111L1783.72 894L1639.57 894L1639.57 397.034L1776.95 397.034L1776.95 534.642L1751.23 493.359Q1777.85 442.828 1827.71 416.435Q1877.56 389.815 1941.18 389.815ZM2494.67 915.431Q2421.43 915.431 2361.53 882.02Q2301.62 848.468 2266.92 787.688Q2232.31 727.062 2232.31 645.179Q2232.31 563.521 2266.92 502.895Q2301.63 442.095 2361.55 408.779Q2421.43 375.378 2494.67 375.378Q2561.78 375.378 2612.1 405.135Q2662.87 434.914 2690.94 495.404Q2718.45 554.691 2718.45 645.179Q2718.45 735.519 2692.18 795.148Q2665.26 856.268 2614.31 886.151Q2564.22 915.431 2494.67 915.431ZM2494.67 886.556Q2556.4 886.556 2599.7 861.244Q2642.6 836.084 2665.76 783.508Q2689.57 729.442 2689.57 645.179Q2689.57 561.063 2664.75 507.557Q2640.48 455.254 2597.4 429.99Q2553.88 404.253 2494.67 404.253Q2428.94 404.253 2375.58 434.016Q2322.71 463.413 2292 517.21Q2261.19 571.182 2261.19 645.179Q2261.19 719.401 2292 773.373Q2322.72 827.191 2375.6 856.802Q2428.94 886.556 2494.67 886.556ZM2519.48 768.574Q2551.52 768.574 2576.61 754.234Q2601.67 739.832 2616.64 712.09Q2631.82 683.942 2631.82 645.179Q2631.82 605.809 2616.7 578.384Q2601.75 551.279 2576.65 537.05Q2551.47 522.46 2519.48 522.46Q2487.27 522.46 2462.2 536.983Q2437.19 551.277 2422 578.455Q2406.91 605.809 2406.91 645.179Q2406.91 683.942 2422.1 712.09Q2437.27 739.833 2462.2 754.277Q2487.22 768.574 2519.48 768.574ZM2519.48 797.449Q2479.55 797.449 2447.73 779.262Q2415.81 760.77 2396.69 725.801Q2378.04 691.235 2378.04 645.179Q2378.04 598.375 2396.79 564.369Q2415.89 530.188 2447.73 511.998Q2479.51 493.585 2519.48 493.585Q2559.23 493.585 2590.89 511.931Q2623.09 530.186 2641.98 564.44Q2660.7 598.375 2660.7 645.179Q2660.7 691.235 2642.05 725.801Q2623.18 760.772 2590.94 779.305Q2559.18 797.449 2519.48 797.449ZM2636.11 894L2636.11 792.261L2638.59 644.485L2653.03 644.728L2638.62 645.631L2629.34 497.646L2629.34 194.007L2802.37 194.007L2802.37 908.438L2636.11 908.438L2636.11 894ZM2664.98 894L2650.55 894L2650.55 879.562L2787.93 879.562L2787.93 894L2773.49 894L2773.49 208.444L2787.93 208.444L2787.93 222.882L2643.78 222.882L2643.78 208.444L2658.22 208.444L2658.22 497.194L2643.78 497.194L2658.19 496.291L2667.47 644.397L2664.98 792.261L2664.98 894ZM2494.67 900.993Q2425.19 900.993 2368.56 869.411Q2312.17 837.829 2279.46 780.53Q2246.75 723.231 2246.75 645.179Q2246.75 567.352 2279.46 510.053Q2312.17 452.754 2368.56 421.397Q2425.19 389.815 2494.67 389.815Q2557.83 389.815 2604.75 417.562Q2651.67 445.084 2677.84 501.48Q2704.01 557.877 2704.01 645.179Q2704.01 732.48 2678.97 789.328Q2653.93 846.176 2607.01 873.697Q2560.31 900.993 2494.67 900.993ZM2519.48 783.012Q2555.35 783.012 2583.77 766.77Q2612.42 750.302 2629.34 718.945Q2646.26 687.589 2646.26 645.179Q2646.26 602.092 2629.34 571.412Q2612.42 540.732 2583.77 524.49Q2555.35 508.022 2519.48 508.022Q2483.39 508.022 2454.96 524.49Q2426.54 540.732 2409.4 571.412Q2392.48 602.092 2392.48 645.179Q2392.48 687.589 2409.4 718.945Q2426.54 750.302 2454.96 766.77Q2483.39 783.012 2519.48 783.012ZM2650.55 894L2650.55 792.261L2653.03 644.728L2643.78 497.194L2643.78 208.444L2787.93 208.444L2787.93 894L2650.55 894ZM3211 894L3211 797.224L3225.44 797.224L3212.04 802.609L3202.2 778.135L3202.2 601.866Q3202.2 562.032 3178.76 540.84Q3154.65 518.851 3101.59 518.851Q3064.61 518.851 3028.43 530.557Q2992.46 541.983 2967.2 561.608L2953.45 572.289L2888.39 445.588L2898.47 438.329Q2941.67 407.237 3001.29 391.213Q3060.21 375.378 3121.44 375.378Q3240.7 375.378 3307.46 432.538Q3375.23 490.305 3375.23 609.987L3375.23 908.438L3211 908.438L3211 894ZM3239.87 894L3225.44 894L3225.44 879.562L3360.79 879.562L3360.79 894L3346.35 894L3346.35 609.987Q3346.35 503.632 3288.69 454.472Q3230.03 404.253 3121.44 404.253Q3064.02 404.253 3008.79 419.098Q2954.26 433.753 2915.34 461.765L2906.91 450.047L2919.75 443.452L2971.19 543.612L2958.34 550.207L2949.48 538.806Q2978.81 516.021 3019.54 503.084Q3060.06 489.976 3101.59 489.976Q3165.84 489.976 3198.12 519.42Q3231.08 549.21 3231.08 601.866L3231.08 775.342L3216.64 775.342L3230.03 769.956L3239.87 794.43L3239.87 894ZM3074.29 915.431Q3013.09 915.431 2968.44 894.432Q2923.2 873.041 2898.86 835.538Q2874.65 797.603 2874.65 750.527Q2874.65 702.529 2898.37 665.578Q2922.55 628.299 2973.94 607.645Q3023.68 587.654 3102.04 587.654L3248.22 587.654L3248.22 700.447L3118.06 700.447Q3072.47 700.447 3057.6 713.375Q3043.61 725.526 3043.61 744.662Q3043.61 764.619 3059.4 776.752Q3077.08 790.005 3109.94 790.005Q3142.34 790.005 3167.83 775.067Q3192.28 760.744 3203.11 731.717L3217.55 693.05L3253.7 803.746L3252.26 808.213Q3235.25 860.734 3188.87 888.559Q3143.93 915.431 3074.29 915.431ZM3074.29 886.556Q3135.95 886.556 3174.02 863.799Q3211.11 841.543 3224.78 799.318L3238.52 803.766L3224.8 808.248L3202.91 741.249L3216.64 736.767L3230.16 741.816Q3215.73 780.465 3182.43 799.98Q3150.17 818.88 3109.94 818.88Q3067.45 818.88 3041.81 799.648Q3014.74 778.846 3014.74 744.662Q3014.74 712.365 3038.66 691.58Q3061.68 671.572 3118.06 671.572L3233.78 671.572L3233.78 686.01L3219.35 686.01L3219.35 602.092L3233.78 602.092L3233.78 616.529L3102.04 616.529Q3029.26 616.529 2984.71 634.437Q2941.8 651.682 2922.67 681.176Q2903.52 710.999 2903.52 750.527Q2903.52 789.174 2923.08 819.818Q2942.95 850.442 2980.73 868.302Q3019.54 886.556 3074.29 886.556ZM3225.44 894L3225.44 797.224L3216.64 775.342L3216.64 601.866Q3216.64 555.621 3188.44 530.13Q3160.24 504.413 3101.59 504.413Q3062.34 504.413 3023.99 516.82Q2985.64 529.002 2958.34 550.207L2906.91 450.047Q2947.97 420.495 3005.04 405.155Q3062.11 389.815 3121.44 389.815Q3235.36 389.815 3298.07 443.505Q3360.79 496.969 3360.79 609.987L3360.79 894L3225.44 894ZM3074.29 900.993Q3016.32 900.993 2974.58 881.367Q2933.08 861.741 2910.97 827.678Q2889.09 793.389 2889.09 750.527Q2889.09 706.764 2910.52 673.377Q2932.17 639.99 2979.32 621.041Q3026.47 602.092 3102.04 602.092L3233.78 602.092L3233.78 686.01L3118.06 686.01Q3067.07 686.01 3048.13 702.478Q3029.18 718.945 3029.18 744.662Q3029.18 771.732 3050.61 788.2Q3072.26 804.442 3109.94 804.442Q3146.26 804.442 3175.13 787.523Q3204.01 770.604 3216.64 736.767L3238.52 803.766Q3223.18 851.139 3181.45 876.179Q3139.94 900.993 3074.29 900.993ZM3476.79 894L3476.79 382.597L3643.05 382.597L3643.05 537.574L3615.53 543.68L3593.89 497.325L3596.31 491.46Q3620.13 433.77 3673.51 404.251Q3725.72 375.378 3800.05 375.378L3814.49 375.378L3814.49 539.558L3798.01 537.204Q3788.92 535.905 3781.64 535.262Q3774.81 534.642 3767.8 534.642Q3713.5 534.642 3681.35 564.798Q3649.81 594.557 3649.81 659.391L3649.81 908.438L3476.79 908.438L3476.79 894ZM3505.67 894L3491.23 894L3491.23 879.562L3635.38 879.562L3635.38 894L3620.94 894L3620.94 659.391Q3620.94 582.105 3661.59 543.737Q3702.08 505.767 3767.8 505.767Q3776.12 505.767 3784.18 506.499Q3792.24 507.21 3802.1 508.619L3800.05 522.911L3785.62 522.911L3785.62 389.815L3800.05 389.815L3800.05 404.253Q3733.17 404.253 3687.48 429.52Q3642.96 454.142 3623.01 502.477L3609.66 496.969L3622.74 490.863L3641.69 531.469L3628.61 537.574L3614.17 537.574L3614.17 397.034L3628.61 397.034L3628.61 411.472L3491.23 411.472L3491.23 397.034L3505.67 397.034L3505.67 894ZM3491.23 894L3491.23 397.034L3628.61 397.034L3628.61 537.574L3609.66 496.969Q3631.54 443.956 3680.49 416.886Q3729.45 389.815 3800.05 389.815L3800.05 522.911Q3790.58 521.558 3782.91 520.881Q3775.47 520.204 3767.8 520.204Q3707.79 520.204 3671.47 554.268Q3635.38 588.331 3635.38 659.391L3635.38 894L3491.23 894Z"/></svg>